# xmcd
#
# Track frame offsets:
#	150
#	13798
#	26518
#	39377
#	52988
#	65269
#	78316
#	92260
#	105914
#	118034
#	130080
#	142749
#	155547
#	170042
#
# Disc length: 2401 seconds
#
# Revision: 0
# Processed by: cddbd v1.4PL0 Copyright (c) Steve Scherf et al.
# Submitted via: audiograbber 1.80
#
DISCID=a1095f0e
DTITLE=Dionne Warwick            FJGG - Dionne Warwick
DYEAR=1900
DGENRE=
TTITLE0=Tu No Tienes Corazon
TTITLE1=Don't Make Me Over
TTITLE2=Sigue Tu Camino
TTITLE3=Rezo Una Pequena Oracion
TTITLE4=Conoces El Camino A San Jose-
TTITLE5=Estas Con Otra Chica-
TTITLE6=Una casa No Es Un Hogar
TTITLE7=You'll Never Get To Heaven
TTITLE8=Make It Easy On Yourself
TTITLE9=Reach Out For me
TTITLE10=Trenes barcos Y aviones
TTITLE11=I Just Don't Know What To Do With Myself
TTITLE12=Las Ventanas Del Mundo
TTITLE13=No Me Vuelvo A Enamorar
EXTD=
EXTT0=
EXTT1=
EXTT2=
EXTT3=
EXTT4=
EXTT5=
EXTT6=
EXTT7=
EXTT8=
EXTT9=
EXTT10=
EXTT11=
EXTT12=
EXTT13=
PLAYORDER=
